<svg width="36" height="36" viewBox="0 0 36 36" fill="none" xmlns="http://www.w3.org/2000/svg">
<path d="M34.4702 1.49729C35.3165 2.31103 35.8698 3.38517 36 4.55696C36 5.04521 35.8698 5.37071 35.5769 5.98915C35.2839 6.60759 31.6709 12.8571 30.5967 14.5823C29.9783 15.5913 29.6528 16.7957 29.6528 17.9675C29.6528 19.1718 29.9783 20.3436 30.5967 21.3526C31.6709 23.0778 35.2839 29.3599 35.5769 29.9783C35.8698 30.5967 36 30.8897 36 31.3779C35.8698 32.5497 35.349 33.6239 34.5027 34.4051C33.689 35.2514 32.6148 35.8047 31.4756 35.9024C30.9873 35.9024 30.6618 35.7722 30.076 35.4792C29.4901 35.1863 23.1103 31.6709 21.3852 30.5967C21.255 30.5316 21.1248 30.434 20.962 30.3689L12.434 25.3237C12.6293 26.9512 13.3454 28.5136 14.5172 29.6528C14.745 29.8807 14.9729 30.076 15.2333 30.2712C15.038 30.3689 14.8101 30.4665 14.6148 30.5967C12.8897 31.6709 6.60759 35.2839 5.98915 35.5769C5.37071 35.8698 5.07776 36 4.55696 36C3.38517 35.8698 2.31103 35.349 1.52984 34.5027C0.683544 33.689 0.130199 32.6148 0 31.443C0.0325497 30.9548 0.162749 30.4665 0.423146 30.0434C0.716094 29.425 4.32911 23.1429 5.40326 21.4177C6.0217 20.4087 6.3472 19.2369 6.3472 18.0326C6.3472 16.8282 6.0217 15.6564 5.40326 14.6474C4.32911 12.8571 0.683544 6.57505 0.423146 5.9566C0.162749 5.53345 0.0325497 5.04521 0 4.55696C0.130199 3.38517 0.650995 2.31103 1.49729 1.49729C2.31103 0.650995 3.38517 0.130199 4.55696 0C5.04521 0.0325497 5.53345 0.162749 5.98915 0.423146C6.50995 0.650995 11.0995 3.32007 13.5407 4.75226L14.094 5.07776C14.2893 5.20796 14.4521 5.30561 14.5823 5.37071L14.8427 5.53345L23.5335 10.6763C23.3382 8.72333 22.3291 6.93309 20.7667 5.72875C20.962 5.6311 21.1899 5.53345 21.3852 5.40326C23.1103 4.32911 29.3924 0.683544 30.0109 0.423146C30.434 0.162749 30.9222 0.0325497 31.443 0C32.5823 0.130199 33.6564 0.650995 34.4702 1.49729ZM18.4557 20.311L20.311 18.4557C20.5714 18.1953 20.5714 17.8047 20.311 17.5443L18.4557 15.689C18.1953 15.4286 17.8047 15.4286 17.5443 15.689L15.689 17.5443C15.4286 17.8047 15.4286 18.1953 15.689 18.4557L17.5443 20.311C17.7722 20.5389 18.1953 20.5389 18.4557 20.311Z" fill="#FF694A"/>
</svg>
